<?xml version="1.0" encoding="UTF-8" standalone="no"?>
<!-- Created with Inkscape (http://www.inkscape.org/) -->

<svg
   xmlns:dc="http://purl.org/dc/elements/1.1/"
   xmlns:cc="http://creativecommons.org/ns#"
   xmlns:rdf="http://www.w3.org/1999/02/22-rdf-syntax-ns#"
   xmlns:svg="http://www.w3.org/2000/svg"
   xmlns="http://www.w3.org/2000/svg"
   xmlns:sodipodi="http://sodipodi.sourceforge.net/DTD/sodipodi-0.dtd"
   xmlns:inkscape="http://www.inkscape.org/namespaces/inkscape"
   version="1.1"
   id="svg10"
   width="39"
   height="38"
   viewBox="0 0 386.1 376.2"
   sodipodi:docname="icon-house.svg"
   inkscape:version="0.92.1 r15371">
  <metadata
     id="metadata16">
    <rdf:RDF>
      <cc:Work
         rdf:about="">
        <dc:format>image/svg+xml</dc:format>
        <dc:type
           rdf:resource="http://purl.org/dc/dcmitype/StillImage" />
        <dc:title></dc:title>
      </cc:Work>
    </rdf:RDF>
  </metadata>
  <defs
     id="defs14" />
  <sodipodi:namedview
     pagecolor="#ffffff"
     bordercolor="#666666"
     borderopacity="1"
     objecttolerance="10"
     gridtolerance="10"
     guidetolerance="10"
     inkscape:pageopacity="0"
     inkscape:pageshadow="2"
     inkscape:window-width="1920"
     inkscape:window-height="1017"
     id="namedview12"
     showgrid="false"
     scale-x="9.9"
     inkscape:zoom="8.9263158"
     inkscape:cx="-15.108214"
     inkscape:cy="44.773443"
     inkscape:window-x="-8"
     inkscape:window-y="-8"
     inkscape:window-maximized="1"
     inkscape:current-layer="svg10" />
  <path
     style="fill:#6eb7d5;stroke-width:1.33333337"
     d="m 37.025196,373.63555 c -6.57247,-5.1699 -2.78248,-12.4622 8.08105,-15.54868 3.68101,-1.04582 5.95056,-2.65264 7,-4.95593 1.12953,-2.47903 1.55295,-26.45037 1.55295,-87.91703 0,-75.0483 -0.23455,-84.74325 -2.09524,-86.60393 -1.15238,-1.15239 -2.38217,-2.09524 -2.73288,-2.09524 -2.58588,0 -9.42061,5.417 -18.50521,14.66667 -9.94584,10.12656 -15.91004,14.66666 -19.26712,14.66666 -2.6633201,0 -6.7328791,-5.34762 -6.7328791,-8.84736 0,-2.87185 16.7512891,-20.29629 91.6666571,-95.35025 C 146.40919,51.140543 187.85092,8.6218521 188.08526,7.1644921 c 0.60876,-3.78593 10.51277,-3.89143 11.14786,-0.11875 0.54208,3.2201699 55.00666,58.8023299 57.61999,58.8023299 1.07192,0 2.8918,-0.94285 4.04417,-2.09524 1.74727,-1.74726 2.09524,-6.023 2.09524,-25.745159 0,-18.730361 0.40722,-24.188301 1.9576,-26.238091 1.07667,-1.4235 1.97667,-3.6381799 2,-4.9215099 0.0392,-2.15692 2.48747,-2.33333 32.38282,-2.33333 h 32.34041 l 1.92461,5 c 1.54054,4.0021799 2.0713,17.7952299 2.65959,69.1158499 l 0.73497,64.115838 3.79071,5.46815 c 2.08489,3.00748 12.42477,13.92588 22.97751,24.26311 10.55273,10.33724 19.81069,19.96073 20.57324,21.38556 1.01288,1.89258 0.85765,3.85618 -0.57614,7.2877 -3.12684,7.48358 -7.48578,6.53854 -18.47537,-4.00556 -16.63916,-15.96464 -24.43671,-19.91814 -27.60579,-13.99668 -0.95893,1.7918 -1.29368,29.32624 -1.0469,86.11596 l 0.36274,83.48198 3.74102,3.21738 c 2.82821,2.43234 5.29913,3.21738 10.12669,3.21738 7.53604,0 10.79896,2.7418 10.79896,9.07425 0,8.55315 9.96023,8.06348 -163.634,8.04468 -155.225324,-0.0168 -157.685424,-0.0576 -160.999994,-2.66479 z M 314.26612,358.35317 c 6.04012,-2.31782 6.05974,-2.6574 6.05974,-104.9055 v -96.53282 l -3.85852,-5.20006 c -2.12219,-2.86002 -29.28863,-30.55005 -60.36986,-61.533378 -51.69349,-51.530669 -56.8882,-56.33334 -60.93176,-56.33334 -3.7559,0 -6.64305,2.054541 -19.2052,13.666671 C 148.93295,72.498362 77.585146,143.75749 73.567026,149.78097 l -3.95769,5.9329 0.35826,98.51626 0.35827,98.51626 3.74102,3.21751 3.74101,3.21751 H 194.95783 c 64.43245,0 118.12119,-0.37271 119.30829,-0.82824 z M 159.41302,339.1721 c -1.60206,-0.64548 -3.55206,-2.36801 -4.33334,-3.82783 -1.9795,-3.69873 -1.96065,-109.99554 0.0201,-113.69673 2.95389,-5.51941 8.68226,-6.46815 38.84985,-6.43432 30.02451,0.0336 37.49584,0.92127 40.32528,4.79075 1.33036,1.81938 1.9844,14.96092 2.7338,54.93042 1.06895,57.01282 0.71223,61.24247 -5.40005,64.0274 -4.07535,1.85686 -67.64942,2.04206 -72.19571,0.21031 z m 57.48226,-18.08393 c 1.15128,-1.15128 2.44415,-3.49138 2.87304,-5.2002 0.4289,-1.70884 0.57979,-19.95099 0.33534,-40.53812 -0.55962,-47.12858 1.46096,-43.61278 -24.73122,-43.03226 -10.0524,0.22279 -19.37894,0.99478 -20.72566,1.71552 -1.34671,0.72074 -3.01984,2.81302 -3.71808,4.6495 -1.47615,3.88256 -1.70643,77.79294 -0.2491,79.94608 2.47055,3.65009 7.07103,4.47325 25.21768,4.51217 15.43887,0.0331 19.28852,-0.34321 20.998,-2.05269 z M 91.754436,266.4195 c -5.0841,-5.08409 -0.58894,-20.57143 5.970798,-20.57143 5.728996,0 9.944206,13.40006 6.073486,19.30751 -2.56698,3.91771 -8.742454,4.56576 -12.044284,1.26392 z m 30.778074,-0.34308 c -4.71408,-5.209 -0.41257,-20.22835 5.79335,-20.22835 3.4177,0 7.98829,7.26224 7.99501,12.70332 0.0107,8.64362 -8.54863,13.31487 -13.78836,7.52503 z m 133.33333,0 c -4.71408,-5.209 -0.41257,-20.22835 5.79335,-20.22835 3.41771,0 7.98829,7.26224 7.99501,12.70332 0.0107,8.64362 -8.54862,13.31487 -13.78836,7.52503 z m 30.53562,-0.52503 c -2.82856,-4.03834 -2.5989,-10.16204 0.57645,-15.36998 3.21792,-5.27778 6.8564,-5.55971 10.58451,-0.82019 3.38776,4.30683 3.7659,13.96057 0.6682,17.05828 -3.10996,3.10996 -9.3643,2.65097 -11.82916,-0.86811 z M 95.612666,241.46402 c -7.00379,-8.20208 -8.24588,-18.33083 -2.86753,-23.38353 3.875698,-3.64103 6.473578,-3.66578 9.707404,-0.0924 3.81631,4.21697 3.43044,14.08157 -0.79335,20.28193 -3.655826,5.36661 -4.024886,5.56153 -6.046524,3.194 z m 29.394154,-2.26769 c -5.18286,-5.40974 -6.16224,-15.13743 -2.04866,-20.34826 1.59202,-2.01666 4.00748,-3.66666 5.3677,-3.66666 3.63622,0 8,6.30908 8,11.56626 0,4.34756 -4.30438,12.12615 -6.70966,13.61268 -0.63159,0.39035 -2.55948,0.97562 -4.60938,-1.16402 z m 131.87696,-2.68868 c -5.3374,-5.57106 -4.87346,-13.39923 -0.50096,-18.05354 1.691,-1.79998 4.12641,-3.2727 5.41201,-3.2727 3.40515,0 7.86899,6.36944 7.83508,11.17981 -0.0304,4.3142 -3.9694,9.64459 -6.18249,11.01236 -0.69747,0.43107 -4.51373,1.27371 -6.56364,-0.86593 z m 33.17445,1.54522 c -6.43416,-7.06411 -7.61149,-13.45625 -2.96893,-19.35832 9.07606,-11.53834 18.29237,6.20116 9.74313,18.7825 -1.85978,2.7369 -3.94729,2.45554 -4.04766,1.61533 -0.0252,-0.2109 -1.22369,0.61049 -2.72654,-1.03951 z M 189.65919,185.89003 c -14.46393,-4.72822 -28.59119,-15.6266 -32.02909,-24.70862 -1.94368,-5.13467 -1.92047,-24.09323 0.0384,-31.36791 1.88622,-7.00491 11.96505,-18.12901 19.45425,-21.47184 6.56185,-2.92891 23.9016,-3.66103 32.07885,-1.35443 8.44738,2.3828 18.72974,12.40375 23.4139,22.81865 4.6677,10.37834 4.92848,16.70358 1.10909,26.90195 -5.3726,14.3457 -12.03355,21.0722 -26.0654,26.32195 -8.99121,3.36389 -14.01655,4.16244 -18,2.86025 z m 17.33333,-19.87386 c 1.83334,-1.29802 5.28334,-5.23466 7.66667,-8.74808 5.44944,-8.03338 5.94015,-16.66063 1.33333,-23.44128 -4.51534,-6.64602 -14.97333,-13.31207 -20.88454,-13.31207 -9.22652,0 -22.33211,11.38134 -24.8127,21.54817 -1.40245,5.74808 3.97422,15.72842 12.35968,22.94239 5.95632,5.1242 17.83116,5.61743 24.33756,1.01087 z m 111.9531,-49.41378 c 0.8674,-1.62076 1.38024,-18.140168 1.38024,-44.460008 0,-50.7088 1.67837,-46.73448 -20.0212,-47.40922 -20.89046,-0.64959 -19.9788,-2.12628 -19.9788,32.36145 0,15.99334 0.58524,28.79676 1.417,31 0.77934,2.0644 7.61886,9.90346 15.19894,17.420128 14.46324,14.34224 19.03036,16.6436 22.00382,11.08765 z"
     id="path36"
     inkscape:connector-curvature="0"
     sodipodi:nodetypes="cccscssssscsscsccsccscssccscscssssccsccsssscccccsccccccscccscsccccsscsccsscssscsscscscscsccccssccccsccccscsccccsscssccscscsccssscsc" />
</svg>
